<svg width="144" height="143" viewBox="0 0 144 143" fill="none" xmlns="http://www.w3.org/2000/svg">
<path d="M72 143C111.765 143 144 110.988 144 71.5C144 32.0116 111.765 0 72 0C32.2355 0 0 32.0116 0 71.5C0 110.988 32.2355 143 72 143Z" fill="#828282"/>
<path fill-rule="evenodd" clip-rule="evenodd" d="M28.5072 74.0061H68.5301C69.5834 32.9522 17.6237 35.0576 19.028 74.0061C21.4856 108.042 63.6149 106.287 67.4768 82.4274H59.051C54.4869 98.5683 26.7518 94.0067 28.5072 74.0061ZM72.0409 44.1807H83.6264L96.9675 63.4795L110.659 44.1807H121.894L102.585 69.7955L124 99.6209H112.415L96.9675 76.8132L81.52 99.6209H70.6365L91.3502 70.4972L72.0409 44.1807ZM28.5072 66.6374C30.6136 46.6369 56.9445 46.9877 59.051 66.6374H28.5072Z" fill="#FFF8F8"/>
</svg>
