<svg width="144" height="162" viewBox="0 0 144 162" fill="none" xmlns="http://www.w3.org/2000/svg">
<path d="M53.0061 50.7497H41.9632V122.15C41.9632 125.235 36.2209 130.083 29.1534 126.558L10.6012 115.98V47.6645C10.7573 46.1017 11.149 45.2286 14.5767 43.6978L68.0245 12.8458C70.8924 11.3591 72.4464 11.2671 75.092 12.8458L129.865 44.1385C131.7 45.1992 132.581 45.6492 132.515 47.6645V114.217C132.57 115.839 132.119 116.62 130.307 117.743L75.9754 149.035C72.8704 150.457 71.1296 150.656 68.0245 149.035L55.6564 141.102L43.2883 146.832L65.3742 160.054C71.1486 162.724 73.9091 162.572 78.184 160.054L138.258 125.235C142.694 122.461 143.935 120.038 144 114.217V47.6645C144.006 41.6343 142.107 38.8252 135.166 34.8829L79.0675 2.26792C73.2467 -0.871908 70.0646 -0.637777 64.4908 2.26792L5.74233 36.2052C2.08325 38.2385 1.06427 40.3312 0 44.7587V115.98C0.315685 120.784 1.49969 122.748 4.8589 125.235L26.9448 137.576C46.8221 144.187 53.0061 129.643 53.0061 125.235V50.7497Z" fill="#83CD29"/>
<path d="M117.497 71.4646H106.454C105.512 65.4486 100.27 60.0053 96.7362 60.0053H80.3926C75.6537 61.349 74.0246 62.5133 72.8834 65.2942C72.4354 67.1297 72.4263 68.0966 72.8834 69.7016C73.8558 72.9855 80.8344 75.5371 101.595 77.1943C112.638 78.0758 119.706 85.1277 119.706 89.9758V98.3499C118.822 108.046 106.189 114.848 98.5031 114.657H80.8344C70.6748 114.657 55.2147 104.08 59.1902 91.2981H69.7914C70.6748 99.6722 75.9754 104.08 80.8344 104.08H98.9448C105.129 102.757 107.337 100.554 107.779 95.2647C107.337 79.8387 60.9571 95.2647 60.5153 68.8202C60.5153 59.1238 68.4662 49.4275 79.0675 49.4275H96.2945C108.221 49.4275 116.757 58.3072 117.497 71.4646Z" fill="#83CD29"/>
</svg>
