<svg width="128" height="129" viewBox="0 0 128 129" fill="none" xmlns="http://www.w3.org/2000/svg">
<path d="M42.0496 6H9.07202C7.41517 6 6.07202 7.34314 6.07202 9V42C6.07202 43.6568 7.41517 45 9.07203 45H42.0496C43.7065 45 45.0496 43.6568 45.0496 42V9C45.0496 7.34314 43.7065 6 42.0496 6Z" fill="#F8F0F0"/>
<path d="M81.5548 50.9725L33.5858 50.528C31.9181 50.5126 30.558 51.8602 30.558 53.5279V75.0277C30.558 76.6737 31.8843 78.0123 33.5302 78.0275L81.4992 78.4719C83.1668 78.4874 84.527 77.1398 84.527 75.4721V53.9723C84.527 52.3263 83.2007 50.9877 81.5548 50.9725Z" fill="#F8F0F0"/>
<path d="M42.0496 83H9.07202C7.41517 83 6.07202 84.3431 6.07202 86V117.5C6.07202 119.157 7.41517 120.5 9.07203 120.5H42.0496C43.7065 120.5 45.0496 119.157 45.0496 117.5V86C45.0496 84.3431 43.7065 83 42.0496 83Z" fill="#F8F0F0"/>
<path d="M118.506 6H93.5234C91.8666 6 90.5234 7.34314 90.5234 9V117.5C90.5234 119.157 91.8666 120.5 93.5234 120.5H118.506C120.163 120.5 121.506 119.157 121.506 117.5V9C121.506 7.34314 120.163 6 118.506 6Z" fill="#F8F0F0"/>
<path d="M42.0496 6H9.07202C7.41517 6 6.07202 7.34314 6.07202 9V42C6.07202 43.6568 7.41517 45 9.07203 45H42.0496C43.7065 45 45.0496 43.6568 45.0496 42V9C45.0496 7.34314 43.7065 6 42.0496 6Z" stroke="black" stroke-dasharray="3 1"/>
<path d="M81.5548 50.9725L33.5858 50.528C31.9181 50.5126 30.558 51.8602 30.558 53.5279V75.0277C30.558 76.6737 31.8843 78.0123 33.5302 78.0275L81.4992 78.4719C83.1668 78.4874 84.527 77.1398 84.527 75.4721V53.9723C84.527 52.3263 83.2007 50.9877 81.5548 50.9725Z" stroke="black" stroke-dasharray="3 1"/>
<path d="M42.0496 83H9.07202C7.41517 83 6.07202 84.3431 6.07202 86V117.5C6.07202 119.157 7.41517 120.5 9.07203 120.5H42.0496C43.7065 120.5 45.0496 119.157 45.0496 117.5V86C45.0496 84.3431 43.7065 83 42.0496 83Z" stroke="black" stroke-dasharray="3 1"/>
<path d="M118.506 6H93.5234C91.8666 6 90.5234 7.34314 90.5234 9V117.5C90.5234 119.157 91.8666 120.5 93.5234 120.5H118.506C120.163 120.5 121.506 119.157 121.506 117.5V9C121.506 7.34314 120.163 6 118.506 6Z" stroke="black" stroke-dasharray="3 1"/>
<path d="M61.5013 7.50009C9.5 13.5 11.7988 -0.278545 11.5014 64.5001C11.5014 125 11.5013 112.5 61.5013 122" stroke="black" stroke-width="0.5"/>
<line x1="25.7683" y1="102.094" x2="10.7683" y2="65.0939" stroke="black" stroke-width="0.5"/>
<line x1="26.2333" y1="26.0897" x2="11.2333" y2="65.0897" stroke="black" stroke-width="0.5"/>
<line x1="26.25" y1="33" x2="26.25" y2="95" stroke="black" stroke-width="0.5"/>
<line x1="61.0811" y1="91.2365" x2="26.0811" y2="103.236" stroke="black" stroke-width="0.5"/>
<line x1="27.087" y1="25.7656" x2="62.087" y2="38.7656" stroke="black" stroke-width="0.5"/>
<line x1="42.1982" y1="64.8476" x2="62.1982" y2="90.8476" stroke="black" stroke-width="0.5"/>
<line x1="61.2045" y1="38.1439" x2="42.2045" y2="65.1439" stroke="black" stroke-width="0.5"/>
<line x1="73.2302" y1="65.0974" x2="62.2302" y2="91.0974" stroke="black" stroke-width="0.5"/>
<line x1="61.227" y1="38.8952" x2="73.227" y2="64.8952" stroke="black" stroke-width="0.5"/>
<line x1="60.879" y1="90.7812" x2="107.879" y2="64.7812" stroke="black" stroke-width="0.5"/>
<line x1="61.121" y1="38.7812" x2="108.121" y2="64.7812" stroke="black" stroke-width="0.5"/>
<line x1="108.25" y1="72" x2="108.25" y2="95" stroke="black" stroke-width="0.5"/>
<line x1="108.25" y1="34" x2="108.25" y2="57" stroke="black" stroke-width="0.5"/>
<circle cx="42.5" cy="64.5" r="7.25" fill="#FF5757" stroke="black" stroke-width="0.5"/>
<circle cx="61.5" cy="90.5" r="7.25" transform="rotate(-90 61.5 90.5)" fill="#38B6FF" stroke="black" stroke-width="0.5"/>
<circle cx="73.5" cy="64.5" r="7.25" fill="#5271FF" stroke="black" stroke-width="0.5"/>
<circle cx="61.5" cy="38.5" r="7.25" transform="rotate(-90 61.5 38.5)" fill="#38B6FF" stroke="black" stroke-width="0.5"/>
<circle cx="26.5" cy="25.5" r="7.25" transform="rotate(-90 26.5 25.5)" fill="#FF5757" stroke="black" stroke-width="0.5"/>
<circle cx="11.5" cy="64.5" r="7.25" transform="rotate(-90 11.5 64.5)" fill="#38B6FF" stroke="black" stroke-width="0.5"/>
<circle cx="26.5" cy="102.5" r="7.25" transform="rotate(-90 26.5 102.5)" fill="#5271FF" stroke="black" stroke-width="0.5"/>
<circle cx="61.5" cy="121.5" r="7.25" transform="rotate(-90 61.5 121.5)" fill="#C9FA97" stroke="black" stroke-width="0.5"/>
<circle cx="108.5" cy="102.5" r="7.25" fill="#C9FA97" stroke="black" stroke-width="0.5"/>
<circle cx="108.5" cy="64.5" r="7.25" fill="#FF5757" stroke="black" stroke-width="0.5"/>
<circle cx="108.5" cy="26.5" r="7.25" fill="#C9FA97" stroke="black" stroke-width="0.5"/>
<circle cx="61.5" cy="7.5" r="7.25" transform="rotate(-90 61.5 7.5)" fill="#5271FF" stroke="black" stroke-width="0.5"/>
</svg>
